<svg xmlns="http://www.w3.org/2000/svg" width="594" height="73" viewBox="0 0 594 73"><defs><style>.a{fill:#f4f4f4;}.b{fill:#cb002c;}</style></defs><g transform="translate(-338 -1139)"><rect class="a" width="594" height="73" transform="translate(338 1139)"/><g transform="translate(351.962 802.642)"><g transform="translate(249.938 386.775)"><path class="b" d="M299.61,484.379l-1.119-4.41h.6l.523,2.231c.131.55.249,1.1.327,1.525h.013c.072-.439.209-.962.36-1.531l.589-2.225h.6l.537,2.238c.124.523.242,1.047.307,1.511h.013c.092-.484.216-.975.353-1.525l.582-2.225h.582l-1.25,4.41h-.6l-.556-2.3a13.268,13.268,0,0,1-.288-1.439h-.013a13.735,13.735,0,0,1-.34,1.439l-.628,2.3Z" transform="translate(-298.491 -479.733)"/><path class="b" d="M322.329,486.265a1.015,1.015,0,0,0,1.086,1.1,2.081,2.081,0,0,0,.877-.164l.1.412a2.549,2.549,0,0,1-1.054.2,1.476,1.476,0,0,1-1.557-1.6,1.538,1.538,0,0,1,1.485-1.708A1.342,1.342,0,0,1,324.573,486a2.139,2.139,0,0,1-.02.268Zm1.688-.412a.82.82,0,0,0-.8-.936.955.955,0,0,0-.883.936Z" transform="translate(-315.766 -483.098)"/><path class="b" d="M336.553,479.056h.569v1.989h.013a1.18,1.18,0,0,1,1.08-.582,1.421,1.421,0,0,1,1.335,1.617,1.5,1.5,0,0,1-1.42,1.694,1.128,1.128,0,0,1-1.06-.6h-.02l-.026.524h-.5c.013-.216.026-.537.026-.818Zm.569,3.377a1.074,1.074,0,0,0,.026.209.889.889,0,0,0,.864.674c.6,0,.962-.491.962-1.217,0-.635-.327-1.178-.942-1.178a.918.918,0,0,0-.877.707,1.142,1.142,0,0,0-.033.235Z" transform="translate(-326.707 -479.056)"/><path class="b" d="M358.311,483.478a2.015,2.015,0,0,0,1.021.288c.582,0,.923-.308.923-.753,0-.412-.235-.648-.831-.877-.72-.255-1.165-.628-1.165-1.25a1.27,1.27,0,0,1,1.427-1.2,2,2,0,0,1,.975.216l-.157.464a1.757,1.757,0,0,0-.838-.209c-.6,0-.831.36-.831.661,0,.412.268.615.877.851.746.288,1.126.648,1.126,1.3,0,.68-.5,1.276-1.544,1.276a2.281,2.281,0,0,1-1.125-.288Z" transform="translate(-342.759 -479.526)"/><path class="b" d="M371.718,484.784l.694,1.871c.072.21.151.458.2.648h.013c.059-.19.124-.432.2-.661l.628-1.858h.609l-.864,2.258a4.819,4.819,0,0,1-1.086,1.983,1.557,1.557,0,0,1-.707.373l-.144-.484a1.52,1.52,0,0,0,.5-.281,1.744,1.744,0,0,0,.484-.641.415.415,0,0,0,.046-.137.5.5,0,0,0-.039-.151l-1.171-2.919Z" transform="translate(-352.346 -483.305)"/><path class="b" d="M385.2,487.155a1.509,1.509,0,0,0,.759.229c.419,0,.615-.209.615-.471s-.164-.425-.589-.582c-.569-.2-.838-.517-.838-.9a.977.977,0,0,1,1.093-.929,1.579,1.579,0,0,1,.779.2l-.144.419a1.231,1.231,0,0,0-.648-.183c-.341,0-.53.2-.53.432,0,.262.19.379.6.537.55.209.831.484.831.955,0,.556-.432.955-1.184.955a1.806,1.806,0,0,1-.89-.222Z" transform="translate(-362.704 -483.098)"/><path class="b" d="M396.876,481.844v.759h.824v.438h-.824v1.708c0,.392.111.615.432.615a1.07,1.07,0,0,0,.334-.039l.026.432a1.386,1.386,0,0,1-.51.085.8.8,0,0,1-.622-.249,1.173,1.173,0,0,1-.223-.824v-1.728h-.491V482.6h.491v-.582Z" transform="translate(-370.692 -481.124)"/><path class="b" d="M406.534,486.265a1.015,1.015,0,0,0,1.086,1.1,2.081,2.081,0,0,0,.877-.164l.1.412a2.549,2.549,0,0,1-1.054.2,1.476,1.476,0,0,1-1.557-1.6,1.538,1.538,0,0,1,1.485-1.708A1.342,1.342,0,0,1,408.778,486a2.139,2.139,0,0,1-.02.268Zm1.688-.412a.82.82,0,0,0-.8-.936.955.955,0,0,0-.884.936Z" transform="translate(-378.23 -483.098)"/><path class="b" d="M420.758,485.434c0-.327-.006-.6-.026-.857h.5l.026.51h.02a1.091,1.091,0,0,1,.995-.582.936.936,0,0,1,.9.635h.013a1.3,1.3,0,0,1,.353-.412,1.083,1.083,0,0,1,.7-.223c.419,0,1.041.275,1.041,1.374v1.865h-.563v-1.793c0-.609-.223-.975-.687-.975a.746.746,0,0,0-.681.523.954.954,0,0,0-.046.288v1.957h-.563v-1.9c0-.5-.223-.87-.661-.87a.858.858,0,0,0-.759.857v1.911h-.563Z" transform="translate(-389.171 -483.098)"/><path class="b" d="M447.127,484.172c-.124-.124-.242-.249-.412-.432a1.807,1.807,0,0,1-1.289.5,1.247,1.247,0,0,1-1.354-1.237,1.449,1.449,0,0,1,.864-1.289v-.02a1.517,1.517,0,0,1-.366-.923,1.07,1.07,0,0,1,1.119-1.086.918.918,0,0,1,.975.936c0,.465-.268.831-.968,1.178v.02c.373.432.792.916,1.073,1.23a3.233,3.233,0,0,0,.425-1.289h.523a3.353,3.353,0,0,1-.635,1.629c.236.249.465.5.727.779Zm-1.6-.36a1.229,1.229,0,0,0,.9-.4c-.262-.288-.753-.824-1.243-1.387a1.084,1.084,0,0,0-.569.9.87.87,0,0,0,.9.89Zm.111-3.73a.573.573,0,0,0-.55.641,1.237,1.237,0,0,0,.334.792c.445-.255.733-.491.733-.864a.519.519,0,0,0-.51-.569Z" transform="translate(-406.484 -479.526)"/><path class="b" d="M464.343,479.933a8.174,8.174,0,0,1,1.211-.091,2.524,2.524,0,0,1,1.786.55,2.031,2.031,0,0,1,.622,1.583,2.332,2.332,0,0,1-.635,1.714,2.716,2.716,0,0,1-1.95.635,9.167,9.167,0,0,1-1.034-.052Zm.569,3.9a3.607,3.607,0,0,0,.576.033,1.7,1.7,0,0,0,1.878-1.872,1.573,1.573,0,0,0-1.786-1.7,3.237,3.237,0,0,0-.668.059Z" transform="translate(-421.522 -479.639)"/><path class="b" d="M482.072,486.265a1.015,1.015,0,0,0,1.086,1.1,2.081,2.081,0,0,0,.877-.164l.1.412a2.549,2.549,0,0,1-1.054.2,1.476,1.476,0,0,1-1.558-1.6,1.538,1.538,0,0,1,1.486-1.708A1.342,1.342,0,0,1,484.316,486a2.189,2.189,0,0,1-.02.268Zm1.688-.412a.82.82,0,0,0-.8-.936.954.954,0,0,0-.884.936Z" transform="translate(-434.265 -483.098)"/><path class="b" d="M495.655,487.155a1.51,1.51,0,0,0,.759.229c.419,0,.615-.209.615-.471s-.164-.425-.589-.582c-.569-.2-.838-.517-.838-.9a.977.977,0,0,1,1.093-.929,1.579,1.579,0,0,1,.778.2l-.144.419a1.232,1.232,0,0,0-.648-.183c-.341,0-.53.2-.53.432,0,.262.19.379.6.537.55.209.831.484.831.955,0,.556-.432.955-1.184.955a1.8,1.8,0,0,1-.89-.222Z" transform="translate(-444.643 -483.098)"/><path class="b" d="M508.108,480.3a.357.357,0,0,1-.713,0,.351.351,0,0,1,.36-.36A.342.342,0,0,1,508.108,480.3Zm-.641,4.057v-3.167h.576v3.167Z" transform="translate(-453.458 -479.714)"/><path class="b" d="M516.916,487.286a1.822,1.822,0,0,1-.452,1.446,1.677,1.677,0,0,1-1.151.38,2.044,2.044,0,0,1-1.054-.262l.144-.438a1.787,1.787,0,0,0,.929.249c.589,0,1.021-.307,1.021-1.106V487.2h-.013a1.13,1.13,0,0,1-1.007.53,1.416,1.416,0,0,1-1.348-1.544,1.52,1.52,0,0,1,1.427-1.682,1.053,1.053,0,0,1,.988.55h.013l.026-.478h.5c-.013.229-.026.484-.026.87Zm-.569-1.459a.842.842,0,0,0-.838-.87c-.55,0-.942.465-.942,1.2,0,.622.314,1.139.936,1.139a.842.842,0,0,0,.8-.589,1.006,1.006,0,0,0,.046-.307Z" transform="translate(-458.346 -483.098)"/><path class="b" d="M530.228,485.434c0-.327-.007-.6-.026-.857h.51l.033.523h.013a1.165,1.165,0,0,1,1.047-.6c.438,0,1.119.262,1.119,1.348v1.891h-.576v-1.826c0-.51-.19-.936-.733-.936a.846.846,0,0,0-.812.857v1.9h-.575Z" transform="translate(-470.377 -483.098)"/></g><g transform="translate(233.038 354.656)"><path class="b" d="M428.523,385.561a5.608,5.608,0,0,0-1.417,3.646,5.067,5.067,0,0,0,1.165,3.222c1.473,1.811,4.394,2.85,7.6,1.086a1.168,1.168,0,1,0-1.125-2.046c-2.167,1.192-3.868.467-4.666-.513a2.921,2.921,0,0,1,.212-3.876,2.5,2.5,0,0,1,2.992-.736c.668.29.97.745.951.918s-.491.6-1.829.862a1.171,1.171,0,0,0-.747.493,1.169,1.169,0,0,0,.312,1.621,1.16,1.16,0,0,0,.876.179c3.012-.579,3.616-2.065,3.708-2.9a3.452,3.452,0,0,0-2.346-3.317A4.849,4.849,0,0,0,428.523,385.561Z" transform="translate(-377 -376.274)"/><path class="b" d="M234.04,384.43h0a1.17,1.17,0,0,0-.46,1.586,1.167,1.167,0,0,0,1.586.46,2.871,2.871,0,0,1,3.769.413,3.347,3.347,0,0,1,.02,4.246,2.088,2.088,0,0,1-2.425.927c-.632-.208-1.15-.743-1.155-1.194-.006-.435.535-.889,1.444-1.214a1.167,1.167,0,1,0-.787-2.2c-2.726.975-3,2.731-2.993,3.441a3.824,3.824,0,0,0,2.758,3.383,4.411,4.411,0,0,0,5.017-1.731,5.667,5.667,0,0,0-.112-7.185A5.187,5.187,0,0,0,234.04,384.43Z" transform="translate(-233.038 -376.157)"/><path class="b" d="M292.218,383.972h0a5.033,5.033,0,0,0-3.6,1.725c-2.479,2.831-2.105,8.328-1.857,11.964l.1,1.959a1.212,1.212,0,0,0,1.227,1.161,1.117,1.117,0,0,0,1.108-1.172l-.106-2.1c-.209-3.056-.557-8.168,1.283-10.269a2.743,2.743,0,0,1,1.99-.935c1.676-.108,2.588.794,2.747,1.736.154.905-.34,2.15-2.239,2.681a1.167,1.167,0,1,0,.63,2.248c3.16-.884,4.242-3.379,3.911-5.322A4.634,4.634,0,0,0,292.218,383.972Z" transform="translate(-272.761 -376.392)"/><path class="b" d="M351.176,383.972h0a5.035,5.035,0,0,0-3.6,1.725c-2.479,2.833-2.1,8.328-1.857,11.964l.1,1.959a1.211,1.211,0,0,0,1.226,1.161,1.118,1.118,0,0,0,1.109-1.172l-.108-2.1c-.208-3.058-.555-8.168,1.284-10.269a2.743,2.743,0,0,1,1.99-.935c1.675-.108,2.587.794,2.747,1.736.154.905-.34,2.15-2.239,2.681a1.167,1.167,0,1,0,.628,2.248c3.161-.884,4.243-3.379,3.911-5.322A4.632,4.632,0,0,0,351.176,383.972Z" transform="translate(-316.497 -376.392)"/><path class="b" d="M490.394,383.972h0A5.031,5.031,0,0,0,486.8,385.7c-2.481,2.833-2.107,8.33-1.86,11.966l.1,1.957a1.211,1.211,0,0,0,1.227,1.161,1.116,1.116,0,0,0,1.106-1.172l-.1-2.1c-.208-3.056-.557-8.167,1.285-10.271a2.743,2.743,0,0,1,1.99-.935c1.674-.108,2.585.794,2.747,1.736.153.905-.34,2.15-2.238,2.681a1.167,1.167,0,1,0,.629,2.248c3.158-.884,4.241-3.379,3.908-5.322A4.632,4.632,0,0,0,490.394,383.972Z" transform="translate(-419.769 -376.392)"/><path class="b" d="M403.237,354.656h0a1.166,1.166,0,0,0-.827.349,1.142,1.142,0,0,0-.329.819l.156,15.488a1.174,1.174,0,0,0,.354.834,1.164,1.164,0,0,0,1.979-.836l-.155-15.487A1.174,1.174,0,0,0,403.237,354.656Z" transform="translate(-358.437 -354.656)"/><path class="b" d="M573.607,385.561a5.493,5.493,0,0,0-1.415,3.605,5.2,5.2,0,0,0,1.163,3.262c1.471,1.811,4.392,2.85,7.6,1.086a1.169,1.169,0,0,0,.46-1.586,1.166,1.166,0,0,0-1.585-.46c-2.167,1.19-3.866.469-4.664-.513a2.92,2.92,0,0,1,.213-3.876,2.5,2.5,0,0,1,2.988-.736c.67.29.971.745.953.92s-.491.6-1.829.86a1.167,1.167,0,1,0,.44,2.293c3.016-.579,3.618-2.065,3.711-2.9A3.454,3.454,0,0,0,579.3,384.2,4.85,4.85,0,0,0,573.607,385.561Z" transform="translate(-484.626 -376.274)"/><path class="b" d="M545.582,354.656h0a1.17,1.17,0,0,0-.828.351,1.137,1.137,0,0,0-.327.818l.157,15.488a1.174,1.174,0,0,0,.354.832,1.162,1.162,0,0,0,1.979-.834l-.157-15.487a1.182,1.182,0,0,0-.356-.834A1.151,1.151,0,0,0,545.582,354.656Z" transform="translate(-464.03 -354.656)"/></g></g></g></svg>