<svg xmlns="http://www.w3.org/2000/svg" width="171.106" height="30" viewBox="0 0 171.106 30"><defs><style>.a,.b{fill:#fff;}.b{font-size:23px;font-family:Futura-Bold, Futura;font-weight:700;}</style></defs><g transform="translate(-758.962 286.074)"><g transform="translate(758.962 -283.264)"><path class="a" d="M781.2-280.258l-10.046-5.8a1.433,1.433,0,0,0-1.434,0l-10.046,5.8a1.433,1.433,0,0,0-.717,1.242v11.6a1.433,1.433,0,0,0,.717,1.242l10.046,5.8a1.434,1.434,0,0,0,.717.192,1.434,1.434,0,0,0,.717-.192l10.046-5.8a1.433,1.433,0,0,0,.717-1.242v-11.6A1.433,1.433,0,0,0,781.2-280.258Zm-4.279,11.7-5.695,3.288a1.575,1.575,0,0,1-.789.211,1.577,1.577,0,0,1-.789-.211l-5.695-3.288a1.578,1.578,0,0,1-.787-1.446l.119-2.365,3.153.158-.07,1.4,4.07,2.35,2.538-1.465-9.022-5.209a1.578,1.578,0,0,1-.789-1.367,1.578,1.578,0,0,1,.789-1.367l5.695-3.288a1.578,1.578,0,0,1,1.578,0l5.695,3.288a1.578,1.578,0,0,1,.787,1.446l-.119,2.365-3.152-.158.07-1.4-4.07-2.35L767.9-276.5l9.022,5.209a1.577,1.577,0,0,1,.789,1.367A1.577,1.577,0,0,1,776.925-268.562Z" transform="translate(-758.962 286.25)"/></g><text class="b" transform="translate(789.068 -262.074)"><tspan x="0" y="0">SmartBlock</tspan></text></g></svg>