<svg id="グループ化_174" data-name="グループ化 174" xmlns="http://www.w3.org/2000/svg" width="24" height="16.446" viewBox="0 0 24 16.446">
  <path id="パス_1329" data-name="パス 1329" d="M130.834,465.741l2.981-7.053h-4.265s-5.644,8.544-5.756,8.72a4.954,4.954,0,0,0-.778,2.669,5.17,5.17,0,0,0,10.337,0A5.029,5.029,0,0,0,130.834,465.741Z" transform="translate(-123.017 -458.688)" fill="#767676"/>
  <path id="パス_1330" data-name="パス 1330" d="M165.515,465.741l2.981-7.053h-4.265s-5.644,8.544-5.756,8.72a4.951,4.951,0,0,0-.778,2.669,5.17,5.17,0,0,0,10.337,0A5.029,5.029,0,0,0,165.515,465.741Z" transform="translate(-144.497 -458.688)" fill="#767676"/>
</svg>
