<svg xmlns="http://www.w3.org/2000/svg" width="1792" height="1792" viewBox="0 0 1792 1792"><title>オーバー表示 のコピー</title><g id="f4e8ad28-b59a-485d-87ea-cb74b8818829" data-name="ラベル"><path d="M1502.2,896a602.46,602.46,0,0,1-47.7,236q-6.95,16.44-14.9,32.5H1612v-537H1439.6q7.94,16.05,14.9,32.5A602.46,602.46,0,0,1,1502.2,896Z" fill="none"/><path d="M289.8,896a602.46,602.46,0,0,1,47.7-236q6.94-16.44,14.9-32.5H180v537H352.4q-7.93-16.05-14.9-32.5A602.46,602.46,0,0,1,289.8,896Z" fill="none"/><path d="M1283.28,627.5H508.72a471.44,471.44,0,0,0,0,537h774.56a471.44,471.44,0,0,0,0-537Z" fill="none"/><path d="M896,424.79A471.07,471.07,0,0,0,751.06,447.5h289.88A471.07,471.07,0,0,0,896,424.79Z" fill="none"/><path d="M896,1367.21a470.77,470.77,0,0,0,144.94-22.71H751.06A470.77,470.77,0,0,0,896,1367.21Z" fill="none"/><path d="M1792,447.5H1303.82q10.65,9.69,20.83,19.85A607.26,607.26,0,0,1,1439.6,627.5H1612v537H1439.6a607.26,607.26,0,0,1-114.95,160.15q-10.17,10.15-20.83,19.85H1792Z"/><path d="M393.41,1235a607.1,607.1,0,0,1-41-70.52H180v-537H352.4a607.26,607.26,0,0,1,115-160.15q10.17-10.16,20.83-19.85H0v897H488.18q-10.65-9.69-20.83-19.85A610.3,610.3,0,0,1,393.41,1235Z"/><path d="M751.06,1344.5h289.88a472.27,472.27,0,0,0,242.34-180H508.72A472.27,472.27,0,0,0,751.06,1344.5Z"/><path d="M1040.94,447.5H751.06a472.27,472.27,0,0,0-242.34,180h774.56A472.23,472.23,0,0,0,1040.94,447.5Z"/><path d="M896,424.79c-260.24,0-471.21,211-471.21,471.21s211,471.21,471.21,471.21,471.21-211,471.21-471.21S1156.24,424.79,896,424.79Zm245.42,532.57H650.58V834.64h490.84Z"/></g></svg>