<svg xmlns="http://www.w3.org/2000/svg" width="1792" height="1792" viewBox="0 0 1792 1792"><title>右に追加</title><g id="a45486e9-1bd7-4bb8-82f3-5b1caf84c6b8" data-name="ラベル"><polygon points="956.87 656.51 834.15 656.51 834.15 840.58 650.09 840.58 650.09 963.29 834.15 963.29 834.15 1147.36 956.87 1147.36 956.87 963.29 1140.93 963.29 1140.93 840.58 956.87 840.58 956.87 656.51" fill="none"/><path d="M895.51,430.72c-260.25,0-471.22,211-471.22,471.22s211,471.21,471.22,471.21,471.21-211,471.21-471.21S1155.75,430.72,895.51,430.72Zm245.42,532.57H956.86v184.07H834.15V963.29H650.09V840.58H834.15V656.51H956.86V840.58h184.07Z"/><path d="M895,0V295.74h.51a603.59,603.59,0,0,1,179.49,27V180h537V1612H1075V1481.11a603.91,603.91,0,0,1-179.49,27H895V1792h897V0Z"/></g></svg>