<?xml version="1.0" encoding="utf-8"?>
<!-- Generator: Adobe Illustrator 17.0.0, SVG Export Plug-In . SVG Version: 6.00 Build 0)  -->
<!DOCTYPE svg PUBLIC "-//W3C//DTD SVG 1.1//EN" "http://www.w3.org/Graphics/SVG/1.1/DTD/svg11.dtd">
<svg version="1.1" xmlns="http://www.w3.org/2000/svg" xmlns:xlink="http://www.w3.org/1999/xlink" x="0px" y="0px" width="1792px"
	 height="1792px" viewBox="0 0 1792 1792" enable-background="new 0 0 1792 1792" xml:space="preserve">
<g id="Guide">
</g>
<g id="Font" display="none">
</g>
<g id="内容">
	<g>
		<path d="M268.117,512c10.808,27.987,28.523,54.127,51.883,77.551V1664c0,70.692,57.308,128,128,128h896
			c70.692,0,128-57.308,128-128V589.551c23.36-23.424,41.075-49.563,51.883-77.551H268.117z M768,1536c0,35.347-28.654,64-64,64
			c-35.347,0-64-28.653-64-64V832c0-35.347,28.653-64,64-64c35.346,0,64,28.653,64,64V1536z M1152,1536c0,35.347-28.654,64-64,64
			c-35.347,0-64-28.653-64-64V832c0-35.347,28.653-64,64-64c35.346,0,64,28.653,64,64V1536z"/>
		<path d="M1152,192h3V64c0-35.347-28.654-64-64-64c-2.024,0-4.023,0.105-6,0.289V0H704c-35.347,0-64,28.653-64,64v128
			c-212.077,0-384,114.615-384,256h1280C1536,306.615,1364.077,192,1152,192z M1027,192H768v-64h259V192z"/>
	</g>
</g>
<g id="レイヤー_5" display="none">
</g>
<g id="Unicode" display="none">
	<text transform="matrix(1 0 0 1 437.063 964.2812)" display="inline" fill="#ED1E79" font-family="'ArialMT'" font-size="256">U+F722</text>
</g>
</svg>
