<svg xmlns="http://www.w3.org/2000/svg" width="1792" height="1792" viewBox="0 0 1792 1792"><title>右に追加</title><g id="a4f49691-88a7-40b2-9244-3cf2fd43daf7" data-name="ラベル"><path d="M1792,1789.58V-2.42H960V413.77a478.35,478.35,0,0,1,100,24.34V97.58h632v1592H1060V1349.06a478.35,478.35,0,0,1-100,24.34v416.18Z"/><path d="M960,1272.27c395.49-66.35,423.07-646.9,34.62-749.9C879,491.72,753.79,517.49,660,590.67,346.34,835.31,585.9,1335,960,1272.27ZM846,1093.58v-150H696v-100H846v-150H946v150h150v100H946v150Z"/></g></svg>