<svg xmlns="http://www.w3.org/2000/svg" width="36.646" height="41.607" viewBox="0 0 36.646 41.607"><defs><style>.a{fill:#fff;}</style></defs><g transform="translate(-758.962 286.25)"><path class="a" d="M794.464-276.686l-16.035-9.258a2.287,2.287,0,0,0-2.288,0l-16.035,9.258a2.288,2.288,0,0,0-1.144,1.982v18.515a2.288,2.288,0,0,0,1.144,1.982l16.035,9.258a2.289,2.289,0,0,0,1.144.307,2.289,2.289,0,0,0,1.144-.307l16.035-9.258a2.288,2.288,0,0,0,1.144-1.982V-274.7A2.288,2.288,0,0,0,794.464-276.686Zm-6.83,18.669-9.089,5.248a2.515,2.515,0,0,1-1.259.337,2.516,2.516,0,0,1-1.259-.337l-9.09-5.248a2.519,2.519,0,0,1-1.256-2.308l.189-3.775,5.032.253-.112,2.237,6.5,3.751,4.052-2.339-14.4-8.314a2.519,2.519,0,0,1-1.259-2.181,2.519,2.519,0,0,1,1.259-2.181l9.09-5.248a2.519,2.519,0,0,1,2.519,0l9.089,5.248a2.519,2.519,0,0,1,1.257,2.308l-.189,3.775-5.032-.253.112-2.237-6.5-3.751-4.052,2.339,14.4,8.314a2.518,2.518,0,0,1,1.259,2.181A2.518,2.518,0,0,1,787.634-258.017Z"/></g></svg>